<svg xmlns="http://www.w3.org/2000/svg" version="1.1" xmlns:xlink="http://www.w3.org/1999/xlink" xmlns:svgjs="http://svgjs.com/svgjs" width="1440" height="560" preserveAspectRatio="none" viewBox="0 0 1440 560"><g mask="url(&quot;#SvgjsMask1010&quot;)" fill="none"><path d="M656.64 470.35 a52.01 52.01 0 1 0 104.02 0 a52.01 52.01 0 1 0 -104.02 0z" fill="#e73635"></path><path d="M791.49 519.32L802.52 519.32L802.52 553.18L791.49 553.18z" fill="#e73635"></path><path d="M978.9 331.47L984.89 331.47L984.89 337.46L978.9 337.46z" stroke="#e73635"></path><path d="M722.06 286.26 a37.62 37.62 0 1 0 75.24 0 a37.62 37.62 0 1 0 -75.24 0z" stroke="#e73635"></path><path d="M1195.81 30.5L1232.68 30.5L1232.68 67.84L1195.81 67.84z" stroke="#e73635"></path><path d="M470.12 429.39a21.96 21.96 0 1 0-43.91 0.97z" stroke="#e73635"></path><path d="M598.15 247.23 a41.37 41.37 0 1 0 82.74 0 a41.37 41.37 0 1 0 -82.74 0z" fill="#e73635"></path><path d="M1422.2 154.26L1441.98 154.26L1441.98 174.04L1422.2 174.04z" stroke="#e73635"></path><path d="M849.99 116.53L851.89 116.53L851.89 118.43L849.99 118.43z" fill="#e73635"></path><path d="M1243.63 154.13L1249.63 154.13L1249.63 160.13L1243.63 160.13z" fill="#e73635"></path><path d="M943.18 442.36a42.73 42.73 0 1 0 47.74 70.89z" stroke="#e73635"></path><path d="M1102.98 40.52a5.73 5.73 0 1 0 11.26 2.12z" stroke="#e73635"></path><path d="M381.09 274.03L414.87 274.03L414.87 297.5L381.09 297.5z" fill="#e73635"></path><path d="M1377.44 292.92L1402.54 292.92L1402.54 318.02L1377.44 318.02z" fill="#e73635"></path><path d="M193.67 41.55 a20.13 20.13 0 1 0 40.26 0 a20.13 20.13 0 1 0 -40.26 0z" stroke="#e73635"></path><path d="M71.45 71.8a5.95 5.95 0 1 0-2.65 11.6z" fill="#e73635"></path><path d="M963.13 370.04L984.23 370.04L984.23 420.28L963.13 420.28z" stroke="#e73635"></path><path d="M1043.95 216.86a41.83 41.83 0 1 0-8.18-83.26z" fill="#e73635"></path><path d="M910.77 551.1L913.31 551.1L913.31 553.64L910.77 553.64z" stroke="#e73635"></path><path d="M299.62 83.27 a0.91 0.91 0 1 0 1.82 0 a0.91 0.91 0 1 0 -1.82 0z" fill="#e73635"></path><path d="M1117.1 78.72L1163.27 78.72L1163.27 124.89L1117.1 124.89z" stroke="#e73635"></path><path d="M219.46 410.68L271.95 410.68L271.95 463.17L219.46 463.17z" fill="#e73635"></path><path d="M678.43 77.91L699.25 77.91L699.25 112.33L678.43 112.33z" stroke="#e73635"></path><path d="M182.28 9.26L221.21 9.26L221.21 48.19L182.28 48.19z" fill="#e73635"></path><path d="M982.59 324.05L1005.49 324.05L1005.49 346.95L982.59 346.95z" fill="#e73635"></path><path d="M185.37 311.13a37.55 37.55 0 1 0 11.27 74.25z" stroke="#e73635"></path><path d="M321.21 487.49 a34.59 34.59 0 1 0 69.18 0 a34.59 34.59 0 1 0 -69.18 0z" stroke="#e73635"></path><path d="M131.29 203.1a48.68 48.68 0 1 0-33.57-91.39z" fill="#e73635"></path><path d="M462.09 39.52L505.24 39.52L505.24 80.89L462.09 80.89z" stroke="#e73635"></path><path d="M1000.91 473.49L1047.16 473.49L1047.16 525.26L1000.91 525.26z" stroke="#e73635"></path><path d="M265.9 544.73 a16.88 16.88 0 1 0 33.76 0 a16.88 16.88 0 1 0 -33.76 0z" stroke="#e73635"></path><path d="M537.53 448.08L557.39 448.08L557.39 467.94L537.53 467.94z" fill="#e73635"></path><path d="M483.55 494.72L488.16 494.72L488.16 499.33L483.55 499.33z" fill="#e73635"></path></g><defs><mask id="SvgjsMask1010"><rect width="1440" height="560" fill="#ffffff"></rect></mask></defs></svg>